<?xml version="1.0" encoding="UTF-8"?>
<svg xmlns="http://www.w3.org/2000/svg" xmlns:xlink="http://www.w3.org/1999/xlink" width="15px" height="15px" viewBox="0 0 15 15" version="1.1">
<g id="surface1">
<path style=" stroke:none;fill-rule:nonzero;fill:#fff;fill-opacity:1;" d="M 0 2.8125 C 0 2.292969 0.417969 1.875 0.9375 1.875 L 12.1875 1.875 C 12.707031 1.875 13.125 2.292969 13.125 2.8125 C 13.125 3.332031 12.707031 3.75 12.1875 3.75 L 0.9375 3.75 C 0.417969 3.75 0 3.332031 0 2.8125 Z M 1.875 7.5 C 1.875 6.980469 2.292969 6.5625 2.8125 6.5625 L 14.0625 6.5625 C 14.582031 6.5625 15 6.980469 15 7.5 C 15 8.019531 14.582031 8.4375 14.0625 8.4375 L 2.8125 8.4375 C 2.292969 8.4375 1.875 8.019531 1.875 7.5 Z M 12.1875 13.125 L 0.9375 13.125 C 0.417969 13.125 0 12.707031 0 12.1875 C 0 11.667969 0.417969 11.25 0.9375 11.25 L 12.1875 11.25 C 12.707031 11.25 13.125 11.667969 13.125 12.1875 C 13.125 12.707031 12.707031 13.125 12.1875 13.125 Z M 12.1875 13.125 "/>
</g>
</svg>
