<?xml version="1.0" encoding="UTF-8"?>
<svg xmlns="http://www.w3.org/2000/svg" xmlns:xlink="http://www.w3.org/1999/xlink" width="15px" height="15px" viewBox="0 0 15 15" version="1.1">
<g id="surface1">
<path style=" stroke:none;fill-rule:nonzero;fill:#fff;fill-opacity:1;" d="M 15 9.84375 L 15 1.40625 C 15 0.628906 14.28125 0 13.394531 0 L 3.214844 0 C 1.4375 0 0 1.257812 0 2.8125 L 0 12.1875 C 0 13.742188 1.4375 15 3.214844 15 L 13.929688 15 C 14.519531 15 15 14.582031 15 14.089844 C 15 13.746094 14.777344 13.457031 14.464844 13.292969 L 14.464844 10.910156 C 14.792969 10.628906 15 10.257812 15 9.84375 Z M 4.792969 3.75 L 11.21875 3.75 C 11.542969 3.75 11.785156 3.960938 11.785156 4.21875 C 11.785156 4.476562 11.542969 4.6875 11.25 4.6875 L 4.792969 4.6875 C 4.527344 4.6875 4.285156 4.476562 4.285156 4.21875 C 4.285156 3.960938 4.527344 3.75 4.792969 3.75 Z M 4.792969 5.625 L 11.21875 5.625 C 11.542969 5.625 11.785156 5.835938 11.785156 6.09375 C 11.785156 6.351562 11.542969 6.5625 11.25 6.5625 L 4.792969 6.5625 C 4.527344 6.5625 4.285156 6.351562 4.285156 6.09375 C 4.285156 5.835938 4.527344 5.625 4.792969 5.625 Z M 12.855469 13.125 L 3.214844 13.125 C 2.621094 13.125 2.144531 12.707031 2.144531 12.1875 C 2.144531 11.667969 2.621094 11.25 3.214844 11.25 L 12.855469 11.25 Z M 12.855469 13.125 "/>
</g>
</svg>
