<?xml version="1.0" encoding="UTF-8"?>
<svg xmlns="http://www.w3.org/2000/svg" xmlns:xlink="http://www.w3.org/1999/xlink" width="50px" height="50px" viewBox="0 0 50 50" version="1.1">
<g id="surface1">
<path style=" stroke:none;fill-rule:nonzero;fill:rgb(0%,0%,0%);fill-opacity:1;" d="M 0 21.40625 L 0 42.15625 C 0 43.550781 1.132812 44.722656 2.585938 44.796875 C 7.355469 45.039062 17.597656 46.023438 23.4375 49.992188 L 23.4375 23.945312 C 17.714844 20.070312 7.8125 19.023438 2.914062 18.75 C 1.328125 18.664062 0 19.882812 0 21.40625 Z M 47.089844 18.75 C 42.199219 19.027344 32.3125 20.066406 26.671875 23.933594 C 26.574219 23.945312 26.5625 23.953125 26.5625 23.976562 L 26.5625 50 C 32.425781 46.054688 42.648438 45.042969 47.414062 44.796875 C 48.867188 44.71875 50 43.546875 50 42.15625 L 50 21.40625 C 50 19.882812 48.671875 18.664062 47.089844 18.75 Z M 34.375 9.375 C 34.375 4.199219 30.175781 0 25 0 C 19.824219 0 15.625 4.199219 15.625 9.375 C 15.625 14.550781 19.824219 18.75 25 18.75 C 30.175781 18.75 34.375 14.550781 34.375 9.375 Z M 34.375 9.375 "/>
</g>
</svg>
