<?xml version="1.0" encoding="UTF-8"?>
<svg xmlns="http://www.w3.org/2000/svg" xmlns:xlink="http://www.w3.org/1999/xlink" width="20px" height="20px" viewBox="0 0 20 20" version="1.1">
<g id="surface1">
<path style=" stroke:none;fill-rule:nonzero;fill:#fff;fill-opacity:1;" d="M 18.125 2.5 C 19.160156 2.5 20 3.339844 20 4.375 C 20 4.964844 19.722656 5.519531 19.25 5.875 L 10.75 12.25 C 10.304688 12.582031 9.695312 12.582031 9.25 12.25 L 0.75 5.875 C 0.277344 5.519531 0 4.964844 0 4.375 C 0 3.339844 0.839844 2.5 1.875 2.5 Z M 8.5 13.25 C 9.390625 13.917969 10.609375 13.917969 11.5 13.25 L 20 6.875 L 20 15 C 20 16.378906 18.878906 17.5 17.5 17.5 L 2.5 17.5 C 1.117188 17.5 0 16.378906 0 15 L 0 6.875 Z M 8.5 13.25 "/>
</g>
</svg>
