<?xml version="1.0" encoding="UTF-8"?>
<svg xmlns="http://www.w3.org/2000/svg" xmlns:xlink="http://www.w3.org/1999/xlink" width="50px" height="50px" viewBox="0 0 50 50" version="1.1">
<g id="surface1">
<path style=" stroke:none;fill-rule:nonzero;fill:rgb(0%,0%,0%);fill-opacity:1;" d="M 8.59375 4.6875 C 9.890625 4.6875 10.9375 5.738281 10.9375 7.03125 L 10.9375 11.71875 C 10.9375 13.019531 9.890625 14.0625 8.59375 14.0625 L 3.90625 14.0625 C 2.613281 14.0625 1.5625 13.019531 1.5625 11.71875 L 1.5625 7.03125 C 1.5625 5.738281 2.613281 4.6875 3.90625 4.6875 Z M 46.875 6.25 C 48.601562 6.25 50 7.648438 50 9.375 C 50 11.101562 48.601562 12.5 46.875 12.5 L 18.75 12.5 C 17.023438 12.5 15.625 11.101562 15.625 9.375 C 15.625 7.648438 17.023438 6.25 18.75 6.25 Z M 46.875 21.875 C 48.601562 21.875 50 23.273438 50 25 C 50 26.726562 48.601562 28.125 46.875 28.125 L 18.75 28.125 C 17.023438 28.125 15.625 26.726562 15.625 25 C 15.625 23.273438 17.023438 21.875 18.75 21.875 Z M 46.875 37.5 C 48.601562 37.5 50 38.898438 50 40.625 C 50 42.351562 48.601562 43.75 46.875 43.75 L 18.75 43.75 C 17.023438 43.75 15.625 42.351562 15.625 40.625 C 15.625 38.898438 17.023438 37.5 18.75 37.5 Z M 1.5625 22.65625 C 1.5625 21.359375 2.613281 20.3125 3.90625 20.3125 L 8.59375 20.3125 C 9.890625 20.3125 10.9375 21.359375 10.9375 22.65625 L 10.9375 27.34375 C 10.9375 28.640625 9.890625 29.6875 8.59375 29.6875 L 3.90625 29.6875 C 2.613281 29.6875 1.5625 28.640625 1.5625 27.34375 Z M 8.59375 35.9375 C 9.890625 35.9375 10.9375 36.984375 10.9375 38.28125 L 10.9375 42.96875 C 10.9375 44.265625 9.890625 45.3125 8.59375 45.3125 L 3.90625 45.3125 C 2.613281 45.3125 1.5625 44.265625 1.5625 42.96875 L 1.5625 38.28125 C 1.5625 36.984375 2.613281 35.9375 3.90625 35.9375 Z M 8.59375 35.9375 "/>
</g>
</svg>
