<?xml version="1.0" encoding="UTF-8"?>
<svg xmlns="http://www.w3.org/2000/svg" xmlns:xlink="http://www.w3.org/1999/xlink" width="30px" height="30px" viewBox="0 0 30 30" version="1.1">
<g id="surface1">
<path style=" stroke:none;fill-rule:nonzero;fill:rgb(0%,0%,0%);fill-opacity:1;" d="M 25.5 3.695312 L 22.5 3.695312 C 20.015625 3.695312 18 4.957031 18 6.457031 L 18 23.332031 C 18 24.886719 20.015625 26.144531 22.5 26.144531 L 25.5 26.25 C 27.984375 26.25 30 24.992188 30 23.4375 L 30 6.5625 C 30 5.007812 27.984375 3.695312 25.5 3.695312 Z M 7.5 3.695312 L 4.5 3.695312 C 2.015625 3.695312 0 4.957031 0 6.507812 L 0 23.382812 C 0 24.992188 2.015625 26.25 4.5 26.25 L 7.5 26.25 C 9.984375 26.25 12 24.992188 12 23.4375 L 12 6.5625 C 12 5.007812 9.984375 3.695312 7.5 3.695312 Z M 7.5 3.695312 "/>
</g>
</svg>
