<?xml version="1.0" encoding="UTF-8"?>
<svg xmlns="http://www.w3.org/2000/svg" xmlns:xlink="http://www.w3.org/1999/xlink" width="15px" height="15px" viewBox="0 0 15 15" version="1.1">
<g id="surface1">
<path style=" stroke:none;fill-rule:nonzero;fill:#fff;fill-opacity:1;" d="M 13.464844 9.316406 L 7.835938 4.003906 C 7.566406 3.75 7.164062 3.679688 6.820312 3.828125 C 6.476562 3.976562 6.253906 4.3125 6.253906 4.6875 L 6.253906 7.5 L 1.25 7.5 C 0.558594 7.5 0 8.058594 0 8.75 L 0 11.25 C 0 11.941406 0.558594 12.5 1.25 12.5 L 6.253906 12.5 L 6.253906 15.3125 C 6.253906 15.6875 6.476562 16.023438 6.820312 16.171875 C 7.164062 16.320312 7.566406 16.25 7.835938 15.996094 L 13.464844 10.683594 C 13.839844 10.328125 13.839844 9.671875 13.464844 9.316406 Z M 16.25 1.25 L 13.75 1.25 C 13.058594 1.25 12.5 1.808594 12.5 2.5 C 12.5 3.191406 13.058594 3.75 13.75 3.75 L 16.25 3.75 C 16.941406 3.75 17.5 4.308594 17.5 5 L 17.5 15 C 17.5 15.691406 16.941406 16.25 16.25 16.25 L 13.75 16.25 C 13.058594 16.25 12.5 16.808594 12.5 17.5 C 12.5 18.191406 13.058594 18.75 13.75 18.75 L 16.25 18.75 C 18.320312 18.75 20 17.070312 20 15 L 20 5 C 20 2.929688 18.320312 1.25 16.25 1.25 Z M 16.25 1.25 " fill="#fff"/>
</g>
</svg>
