<?xml version="1.0" encoding="UTF-8"?>
<svg xmlns="http://www.w3.org/2000/svg" xmlns:xlink="http://www.w3.org/1999/xlink" width="12px" height="12px" viewBox="0 0 12 12" version="1.1">
<g id="surface1">
<path style=" stroke:none;fill-rule:nonzero;fill:rgb(0%,0%,0%);fill-opacity:1;" d="M 2.25 11.25 L 3.75 11.25 C 4.164062 11.25 4.5 10.914062 4.5 10.5 C 4.5 10.085938 4.164062 9.75 3.75 9.75 L 2.25 9.75 C 1.835938 9.75 1.5 9.414062 1.5 9 L 1.5 3 C 1.5 2.585938 1.835938 2.25 2.25 2.25 L 3.75 2.25 C 4.164062 2.25 4.5 1.914062 4.5 1.5 C 4.5 1.085938 4.164062 0.75 3.75 0.75 L 2.25 0.75 C 1.007812 0.75 0 1.757812 0 3 L 0 9 C 0 10.242188 1.007812 11.25 2.25 11.25 Z M 11.832031 5.589844 L 8.453125 2.402344 C 8.289062 2.25 8.050781 2.207031 7.84375 2.292969 C 7.636719 2.382812 7.503906 2.585938 7.503906 2.8125 L 7.503906 4.5 L 4.503906 4.5 C 4.085938 4.5 3.75 4.835938 3.75 5.25 L 3.75 6.75 C 3.75 7.164062 4.089844 7.5 4.503906 7.5 L 7.503906 7.5 L 7.503906 9.164062 C 7.503906 9.390625 7.636719 9.59375 7.84375 9.683594 C 8.050781 9.769531 8.289062 9.730469 8.453125 9.574219 L 11.832031 6.386719 C 12.054688 6.195312 12.054688 5.804688 11.832031 5.589844 Z M 11.832031 5.589844 "/>
</g>
</svg>
