<?xml version="1.0" encoding="UTF-8"?>
<svg xmlns="http://www.w3.org/2000/svg" xmlns:xlink="http://www.w3.org/1999/xlink" width="15px" height="15px" viewBox="0 0 15 15" version="1.1">
<g id="surface1">
<path style=" stroke:none;fill-rule:nonzero;fill:#198754;fill-opacity:1;" d="M 13.179688 1.171875 L 11.757812 2.59375 C 10.621094 1.558594 9.125 0.9375 7.5 0.9375 C 4.730469 0.9375 2.300781 2.707031 1.453125 5.335938 C 1.292969 5.832031 1.5625 6.359375 2.054688 6.519531 C 2.554688 6.679688 3.078125 6.40625 3.238281 5.914062 C 3.835938 4.058594 5.546875 2.8125 7.5 2.8125 C 8.613281 2.8125 9.640625 3.226562 10.4375 3.921875 L 9.113281 5.214844 C 8.644531 5.707031 8.988281 6.546875 9.679688 6.5625 L 13.984375 6.5625 C 14.289062 6.554688 14.53125 6.308594 14.53125 6.003906 L 14.53125 1.730469 C 14.53125 1.023438 13.679688 0.671875 13.179688 1.171875 Z M 12.945312 8.484375 C 12.445312 8.324219 11.921875 8.597656 11.761719 9.085938 C 11.164062 10.941406 9.453125 12.1875 7.5 12.1875 C 6.386719 12.1875 5.359375 11.773438 4.5625 11.078125 L 5.859375 9.785156 C 6.355469 9.292969 6.011719 8.453125 5.320312 8.4375 L 1.015625 8.4375 C 0.710938 8.445312 0.46875 8.691406 0.46875 8.996094 L 0.46875 13.273438 C 0.46875 13.976562 1.320312 14.328125 1.820312 13.832031 L 3.238281 12.410156 C 4.378906 13.441406 5.875 14.0625 7.472656 14.0625 C 10.242188 14.0625 12.671875 12.292969 13.519531 9.664062 C 13.707031 9.171875 13.4375 8.617188 12.945312 8.484375 Z M 12.945312 8.484375 "/>
</g>
</svg>
