<?xml version="1.0" encoding="UTF-8"?>
<svg xmlns="http://www.w3.org/2000/svg" xmlns:xlink="http://www.w3.org/1999/xlink" width="15px" height="17px" viewBox="0 0 15 17" version="1.1">
<g id="surface1">
<path style=" stroke:none;fill-rule:nonzero;fill:#fff;fill-opacity:1;" d="M 4.820312 6.375 L 12.855469 6.375 C 14.039062 6.375 15 7.328125 15 8.5 L 15 14.875 C 15 16.046875 14.039062 17 12.855469 17 L 2.144531 17 C 0.960938 17 0 16.046875 0 14.875 L 0 8.5 C 0 7.328125 0.960938 6.375 2.144531 6.375 L 2.679688 6.375 L 2.679688 4.78125 C 2.679688 2.140625 4.839844 0 7.5 0 C 9.425781 0 11.082031 1.117188 11.855469 2.730469 C 12.109375 3.261719 11.882812 3.894531 11.320312 4.148438 C 10.785156 4.398438 10.175781 4.171875 9.921875 3.640625 C 9.488281 2.742188 8.566406 2.125 7.5 2.125 C 6.019531 2.125 4.820312 3.3125 4.820312 4.78125 Z M 4.820312 6.375 "/>
</g>
</svg>
