<?xml version="1.0" encoding="UTF-8"?>
<svg xmlns="http://www.w3.org/2000/svg" xmlns:xlink="http://www.w3.org/1999/xlink" width="30px" height="30px" viewBox="0 0 30 30" version="1.1">
<g id="surface1">
<path style=" stroke:none;fill-rule:nonzero;fill:rgb(0%,0%,0%);fill-opacity:1;" d="M 9.644531 11.25 L 25.714844 11.25 C 28.078125 11.25 30 12.929688 30 15 L 30 26.25 C 30 28.320312 28.078125 30 25.714844 30 L 4.285156 30 C 1.917969 30 0 28.320312 0 26.25 L 0 15 C 0 12.929688 1.917969 11.25 4.285156 11.25 L 5.355469 11.25 L 5.355469 8.4375 C 5.355469 3.777344 9.675781 0 15 0 C 18.851562 0 22.164062 1.972656 23.710938 4.820312 C 24.222656 5.753906 23.765625 6.875 22.640625 7.320312 C 21.570312 7.765625 20.351562 7.367188 19.839844 6.429688 C 18.976562 4.839844 17.136719 3.75 15 3.75 C 12.039062 3.75 9.644531 5.847656 9.644531 8.4375 Z M 9.644531 11.25 "/>
</g>
</svg>
