<?xml version="1.0" encoding="UTF-8"?>
<svg xmlns="http://www.w3.org/2000/svg" xmlns:xlink="http://www.w3.org/1999/xlink" width="30px" height="30px" viewBox="0 0 30 30" version="1.1">
<g id="surface1">
<path style=" stroke:none;fill-rule:nonzero;fill:rgb(0%,0%,0%);fill-opacity:1;" d="M 10.5 15 C 13.8125 15 16.5 11.640625 16.5 7.5 C 16.5 3.359375 13.8125 0 10.5 0 C 7.1875 0 4.5 3.359375 4.5 7.5 C 4.5 11.640625 7.1875 15 10.5 15 Z M 12.875 17.8125 L 8.125 17.8125 C 3.636719 17.8125 0 22.359375 0 27.96875 C 0 29.09375 0.726562 30 1.625 30 L 19.375 30 C 20.273438 30 21 29.09375 21 27.96875 C 21 22.359375 17.363281 17.8125 12.875 17.8125 Z M 28.875 11.71875 L 26.625 11.71875 L 26.625 8.90625 C 26.625 8.132812 26.125 7.5 25.5 7.5 C 24.875 7.5 24.375 8.128906 24.375 8.90625 L 24.375 11.71875 L 22.125 11.71875 C 21.507812 11.71875 21 12.351562 21 13.125 C 21 13.898438 21.503906 14.53125 22.125 14.53125 L 24.375 14.53125 L 24.375 17.34375 C 24.375 18.125 24.882812 18.75 25.5 18.75 C 26.117188 18.75 26.625 18.121094 26.625 17.34375 L 26.625 14.53125 L 28.875 14.53125 C 29.5 14.53125 30 13.90625 30 13.125 C 30 12.34375 29.5 11.71875 28.875 11.71875 Z M 28.875 11.71875 "/>
</g>
</svg>
