<?xml version="1.0" encoding="UTF-8"?>
<svg xmlns="http://www.w3.org/2000/svg" xmlns:xlink="http://www.w3.org/1999/xlink" width="19px" height="15px" viewBox="0 0 18 15" version="1.1">
<g id="surface1">
<path style=" stroke:none;fill-rule:nonzero;fill:#fff;fill-opacity:1;" d="M 6.300781 7.5 C 8.289062 7.5 9.898438 5.820312 9.898438 3.75 C 9.898438 1.679688 8.289062 0 6.300781 0 C 4.3125 0 2.699219 1.679688 2.699219 3.75 C 2.699219 5.820312 4.3125 7.5 6.300781 7.5 Z M 7.726562 8.90625 L 4.875 8.90625 C 2.183594 8.90625 0 11.179688 0 13.984375 C 0 14.546875 0.4375 15 0.976562 15 L 11.625 15 C 12.164062 15 12.601562 14.546875 12.601562 13.984375 C 12.601562 11.179688 10.417969 8.90625 7.726562 8.90625 Z M 17.324219 5.859375 L 15.976562 5.859375 L 15.976562 4.453125 C 15.976562 4.066406 15.675781 3.75 15.300781 3.75 C 14.925781 3.75 14.625 4.066406 14.625 4.453125 L 14.625 5.859375 L 13.273438 5.859375 C 12.902344 5.859375 12.601562 6.175781 12.601562 6.5625 C 12.601562 6.949219 12.902344 7.265625 13.273438 7.265625 L 14.625 7.265625 L 14.625 8.671875 C 14.625 9.0625 14.929688 9.375 15.300781 9.375 C 15.671875 9.375 15.976562 9.058594 15.976562 8.671875 L 15.976562 7.265625 L 17.324219 7.265625 C 17.699219 7.265625 18 6.953125 18 6.5625 C 18 6.171875 17.699219 5.859375 17.324219 5.859375 Z M 17.324219 5.859375 "/>
</g>
</svg>
