<?xml version="1.0" encoding="UTF-8"?>
<svg xmlns="http://www.w3.org/2000/svg" xmlns:xlink="http://www.w3.org/1999/xlink" width="15px" height="15px" viewBox="0 0 15 15" version="1.1">
<g id="surface1">
<path style=" stroke:none;fill-rule:nonzero;fill:#dc3545;fill-opacity:1;" d="M 7.480469 10.285156 C 6.648438 10.285156 5.980469 11.125 5.980469 12.160156 C 5.980469 13.195312 6.652344 14.035156 7.480469 14.035156 C 8.308594 14.035156 8.980469 13.195312 8.980469 12.160156 C 8.980469 11.125 8.328125 10.285156 7.480469 10.285156 Z M 7.5 5.597656 C 5.851562 5.597656 4.269531 6.347656 3.035156 7.707031 C 2.726562 8.078125 2.695312 8.667969 2.96875 9.058594 C 3.246094 9.445312 3.71875 9.484375 4.027344 9.140625 C 4.988281 8.082031 6.21875 7.5 7.5 7.5 C 8.78125 7.5 10.015625 8.082031 10.972656 9.140625 C 11.113281 9.296875 11.292969 9.375 11.46875 9.375 C 11.675781 9.375 11.882812 9.269531 12.03125 9.058594 C 12.304688 8.667969 12.277344 8.078125 11.964844 7.734375 C 10.730469 6.375 9.148438 5.597656 7.5 5.597656 Z M 14.769531 4.589844 C 12.804688 2.234375 10.222656 0.9375 7.5 0.9375 C 4.777344 0.9375 2.195312 2.234375 0.230469 4.589844 C -0.0664062 4.949219 -0.078125 5.542969 0.207031 5.917969 C 0.496094 6.289062 0.96875 6.300781 1.269531 5.945312 C 2.933594 3.898438 5.164062 2.8125 7.5 2.8125 C 9.835938 2.8125 12.027344 3.925781 13.730469 5.945312 C 13.878906 6.117188 14.0625 6.203125 14.25 6.203125 C 14.445312 6.203125 14.644531 6.109375 14.792969 5.917969 C 15.078125 5.542969 15.066406 4.925781 14.769531 4.589844 Z M 14.769531 4.589844 "/>
</g>
</svg>
