<?xml version="1.0" encoding="UTF-8"?>
<svg xmlns="http://www.w3.org/2000/svg" xmlns:xlink="http://www.w3.org/1999/xlink" width="12px" height="12px" viewBox="0 0 12 12" version="1.1">
<g id="surface1">
<path style=" stroke:none;fill-rule:nonzero;fill:#fff;fill-opacity:1;" d="M 11.648438 8.46875 C 12.117188 8.761719 12.117188 9.238281 11.648438 9.53125 C 11.414062 9.675781 11.109375 9.75 10.800781 9.75 C 10.492188 9.75 10.1875 9.675781 9.953125 9.53125 L 6 7.0625 L 2.046875 9.53125 C 1.8125 9.675781 1.507812 9.75 1.199219 9.75 C 0.894531 9.75 0.585938 9.675781 0.351562 9.53125 C -0.117188 9.238281 -0.117188 8.761719 0.351562 8.46875 L 4.304688 6 L 0.351562 3.53125 C -0.117188 3.238281 -0.117188 2.761719 0.351562 2.46875 C 0.820312 2.175781 1.578125 2.175781 2.046875 2.46875 L 6 4.941406 L 9.953125 2.46875 C 10.421875 2.175781 11.179688 2.175781 11.648438 2.46875 C 12.117188 2.761719 12.117188 3.238281 11.648438 3.53125 L 7.695312 6 Z M 11.648438 8.46875 "/>
</g>
</svg>
